<svg width="45" height="45" viewBox="0 0 45 45" fill="none" xmlns="http://www.w3.org/2000/svg">
    <path d="M44.9279 19.066C44.79 20.8055 44.2784 22.4946 43.6133 24.1077C40.2285 32.3165 36.9182 36.0854 26.5281 43.5401C25.2784 44.4368 23.6133 44.5241 22.2796 43.758C10.4137 36.9423 3.7464 31.4591 0.506822 21.6648C-2.43668 8.31686 7.79184 -2.84121 22.0918 6.83373C37.5953 -3.10633 45.8674 7.20773 44.9279 19.066Z" fill="#FF5364"/>
    <path d="M31.6733 30.695V30.2451V30.1762C31.6733 29.9343 31.7788 29.7043 31.9622 29.5464L31.9979 29.5156C32.1257 29.4057 32.2887 29.3452 32.4572 29.3452C32.6258 29.3452 32.7888 29.4057 32.9165 29.5156L32.9523 29.5464C33.1357 29.7043 33.2411 29.9343 33.2411 30.1762V30.2451V30.695V30.7639C33.2411 31.0058 33.1357 31.2358 32.9523 31.3937L32.9165 31.4245C32.7888 31.5345 32.6258 31.5949 32.4572 31.5949C32.2887 31.5949 32.1257 31.5345 31.9979 31.4245L31.9622 31.3937C31.7788 31.2358 31.6733 31.0058 31.6733 30.7639V30.695Z" fill="#FB7B76"/>
    <path d="M31.6733 34.5099V34.06V33.9911C31.6733 33.7491 31.7788 33.5192 31.9622 33.3613L31.9979 33.3305C32.1257 33.2205 32.2887 33.16 32.4572 33.16C32.6258 33.16 32.7888 33.2205 32.9165 33.3305L32.9523 33.3613C33.1357 33.5192 33.2411 33.7491 33.2411 33.9911V34.06V34.5099V34.5787C33.2411 34.8207 33.1357 35.0507 32.9523 35.2085L32.9165 35.2393C32.7888 35.3493 32.6258 35.4098 32.4572 35.4098C32.2887 35.4098 32.1257 35.3493 31.9979 35.2393L31.9622 35.2085C31.7788 35.0507 31.6733 34.8207 31.6733 34.5787V34.5099Z" fill="#FB7B76"/>
    <path d="M30.7721 33.16H30.3214H30.2509C30.0094 33.16 29.7799 33.055 29.6221 32.8723L29.5905 32.8357C29.4805 32.7084 29.4199 32.5458 29.4199 32.3775C29.4199 32.2092 29.4805 32.0466 29.5905 31.9193L29.6221 31.8827C29.7799 31.7 30.0094 31.595 30.2509 31.595H30.3214H30.7721H30.8427C31.0841 31.595 31.3136 31.7 31.4714 31.8827L31.5031 31.9193C31.6131 32.0466 31.6736 32.2092 31.6736 32.3775C31.6736 32.5458 31.6131 32.7084 31.5031 32.8357L31.4714 32.8723C31.3136 33.055 31.0841 33.16 30.8427 33.16H30.7721Z" fill="#FB7B76"/>
    <path d="M34.5934 33.16H34.1427H34.0721C33.8307 33.16 33.6012 33.055 33.4434 32.8723L33.4117 32.8357C33.3017 32.7084 33.2412 32.5458 33.2412 32.3775C33.2412 32.2092 33.3017 32.0466 33.4117 31.9193L33.4434 31.8827C33.6012 31.7 33.8307 31.595 34.0721 31.595H34.1427H34.5934H34.664C34.9054 31.595 35.1349 31.7 35.2927 31.8827L35.3244 31.9193C35.4344 32.0466 35.4949 32.2092 35.4949 32.3775C35.4949 32.5458 35.4344 32.7084 35.3244 32.8357L35.2927 32.8723C35.1349 33.055 34.9054 33.16 34.664 33.16H34.5934Z" fill="#FB7B76"/>
    <path d="M5.21704 11.1316V10.6817V10.6128C5.21704 10.3709 5.3225 10.1409 5.50586 9.98302L5.54162 9.95223C5.66937 9.84224 5.83235 9.78174 6.00093 9.78174C6.16951 9.78174 6.33249 9.84224 6.46024 9.95223L6.49601 9.98302C6.67937 10.1409 6.78482 10.3709 6.78482 10.6128V10.6817V11.1316V11.2004C6.78482 11.4424 6.67937 11.6724 6.49601 11.8302L6.46024 11.861C6.33249 11.971 6.16951 12.0315 6.00093 12.0315C5.83235 12.0315 5.66937 11.971 5.54162 11.861L5.50586 11.8302C5.32249 11.6724 5.21704 11.4424 5.21704 11.2004V11.1316Z" fill="#FB7B76"/>
    <path d="M5.21704 14.9465V14.4965V14.4277C5.21704 14.1857 5.3225 13.9558 5.50586 13.7979L5.54162 13.7671C5.66937 13.6571 5.83235 13.5966 6.00093 13.5966C6.16951 13.5966 6.33249 13.6571 6.46024 13.7671L6.49601 13.7979C6.67937 13.9558 6.78482 14.1857 6.78482 14.4277V14.4965V14.9465V15.0153C6.78482 15.2573 6.67937 15.4873 6.49601 15.6451L6.46024 15.6759C6.33249 15.7859 6.16951 15.8464 6.00093 15.8464C5.83235 15.8464 5.66937 15.7859 5.54162 15.6759L5.50586 15.6451C5.32249 15.4872 5.21704 15.2573 5.21704 15.0153V14.9465Z" fill="#FB7B76"/>
    <path d="M4.31584 13.5966H3.8651H3.79456C3.55313 13.5966 3.32364 13.4916 3.1658 13.3089L3.13416 13.2723C3.02415 13.145 2.96362 12.9823 2.96362 12.8141C2.96362 12.6458 3.02415 12.4832 3.13416 12.3559L3.1658 12.3192C3.32364 12.1365 3.55313 12.0315 3.79456 12.0315H3.8651H4.31584H4.38638C4.62781 12.0315 4.8573 12.1365 5.01514 12.3192L5.04678 12.3559C5.15678 12.4832 5.21731 12.6458 5.21731 12.8141C5.21731 12.9823 5.15678 13.145 5.04678 13.2723L5.01514 13.3089C4.8573 13.4916 4.62781 13.5966 4.38638 13.5966H4.31584Z" fill="#FB7B76"/>
    <path d="M8.13713 13.5966H7.68639H7.61585C7.37442 13.5966 7.14493 13.4916 6.98709 13.3089L6.95545 13.2723C6.84544 13.145 6.78491 12.9823 6.78491 12.8141C6.78491 12.6458 6.84544 12.4832 6.95545 12.3559L6.98709 12.3192C7.14493 12.1365 7.37442 12.0315 7.61585 12.0315H7.68639H8.13713H8.20767C8.44909 12.0315 8.67859 12.1365 8.83643 12.3192L8.86807 12.3559C8.97807 12.4832 9.0386 12.6458 9.0386 12.8141C9.0386 12.9823 8.97807 13.145 8.86807 13.2723L8.83643 13.3089C8.67859 13.4916 8.44909 13.5966 8.20767 13.5966H8.13713Z" fill="#FB7B76"/>
    <ellipse cx="23.0507" cy="9.29262" rx="9.30871" ry="9.29262" fill="#E4C05C"/>
    <path d="M23.0941 6.27469C23.5882 6.52134 24.1888 6.3207 24.4354 5.82655C24.6821 5.3324 24.4814 4.73187 23.9873 4.48522L23.0941 6.27469ZM23.5407 8.80355L23.0941 7.90882L23.0598 7.92595L23.0268 7.94567L23.5407 8.80355ZM22.6249 11.8837C22.1651 11.5778 21.5444 11.7024 21.2384 12.1622C20.9324 12.622 21.0571 13.2427 21.5168 13.5487L22.6249 11.8837ZM25.1864 13.1175L25.633 14.0123L25.1864 13.1175ZM27.1106 10.8287L26.162 10.5119L27.1106 10.8287ZM26.7241 11.6175L25.8925 11.0621L26.7241 11.6175ZM27.264 9.19421L26.3154 9.51093L27.264 9.19421ZM27.264 10.3692L26.3154 10.0525L27.264 10.3692ZM20.249 10.0607L20.4911 9.09042L20.249 10.0607ZM20.1113 10.0263L19.8692 10.9965L20.1113 10.0263ZM26.4702 11.9976L25.6386 11.4423L26.4702 11.9976ZM23.1972 5.20852L22.7506 6.10326L23.1972 5.20852ZM23.9873 4.48522L23.6438 4.31379L22.7506 6.10326L23.0941 6.27469L23.9873 4.48522ZM17.9588 6.92353L17.8017 7.5508L19.7418 8.03666L19.8989 7.40939L17.9588 6.92353ZM19.8692 10.9965L20.0068 11.0309L20.4911 9.09042L20.3534 9.05606L19.8692 10.9965ZM22.3494 10.6827L24.0545 9.66144L23.0268 7.94567L21.3217 8.96697L22.3494 10.6827ZM23.9873 9.69829L25.3196 9.03326L24.4264 7.24379L23.0941 7.90882L23.9873 9.69829ZM26.2902 9.43539L26.3154 9.51093L28.2125 8.87749L28.1873 8.80195L26.2902 9.43539ZM26.3154 10.0525L26.162 10.5119L28.0591 11.1454L28.2125 10.686L26.3154 10.0525ZM25.8925 11.0621L25.6386 11.4423L27.3019 12.553L27.5557 12.1729L25.8925 11.0621ZM24.7706 12.2074L24.7398 12.2228L25.633 14.0123L25.6638 13.9969L24.7706 12.2074ZM22.9688 12.1126L22.6249 11.8837L21.5168 13.5487L21.8608 13.7776L22.9688 12.1126ZM24.5082 12.3186C23.9907 12.4907 23.4228 12.4148 22.9688 12.1126L21.8608 13.7776C22.8278 14.4212 24.0375 14.583 25.1397 14.2162L24.5082 12.3186ZM24.7398 12.2228C24.665 12.2601 24.5876 12.2921 24.5082 12.3186L25.1397 14.2162C25.3087 14.16 25.4736 14.0918 25.633 14.0123L24.7398 12.2228ZM26.162 10.5119C26.0971 10.7065 26.0064 10.8915 25.8925 11.0621L27.5557 12.1729C27.7685 11.8543 27.9377 11.5087 28.0591 11.1454L26.162 10.5119ZM26.3154 9.51093C26.3741 9.68669 26.3741 9.87676 26.3154 10.0525L28.2125 10.686C28.4085 10.0991 28.4085 9.46439 28.2125 8.87749L26.3154 9.51093ZM25.85 8.99562C26.0578 9.06476 26.2209 9.22769 26.2902 9.43539L28.1873 8.80195C27.9185 7.99714 27.2865 7.36582 26.4815 7.09792L25.85 8.99562ZM25.3196 9.03326C25.4845 8.95099 25.6752 8.93745 25.85 8.99562L26.4815 7.09792C25.8042 6.87255 25.0651 6.925 24.4264 7.24379L25.3196 9.03326ZM20.0068 11.0309C20.803 11.2296 21.6454 11.1044 22.3494 10.6827L21.3217 8.96697C21.0721 9.11647 20.7734 9.16087 20.4911 9.09042L20.0068 11.0309ZM17.8629 9.14037C18.1704 10.0614 18.9271 10.7614 19.8692 10.9965L20.3534 9.05606C20.0747 8.98651 19.8509 8.7794 19.7599 8.50693L17.8629 9.14037ZM17.8017 7.5508C17.6703 8.07567 17.6915 8.62715 17.8629 9.14037L19.7599 8.50693C19.7092 8.3551 19.7029 8.19194 19.7418 8.03666L17.8017 7.5508ZM19.0145 5.06169C18.5003 5.57506 18.1353 6.21865 17.9588 6.92353L19.8989 7.40939C19.9873 7.05644 20.17 6.73418 20.4275 6.47712L19.0145 5.06169ZM21.8477 3.89087C20.7876 3.89087 19.7663 4.31118 19.0145 5.06169L20.4275 6.47712C20.8028 6.1025 21.3153 5.89087 21.8477 5.89087V3.89087ZM25.6386 11.4423C25.4208 11.7685 25.1216 12.0322 24.7706 12.2074L25.6638 13.9969C26.3261 13.6663 26.8907 13.1686 27.3019 12.553L25.6386 11.4423ZM23.6438 4.31379C23.086 4.03538 22.4699 3.89087 21.8477 3.89087V5.89087C22.1611 5.89087 22.4713 5.96385 22.7506 6.10326L23.6438 4.31379Z" fill="#B19046"/>
    <path d="M19.859 4.20488C19.4801 3.80303 18.8472 3.7844 18.4454 4.16326C18.0435 4.54212 18.0249 5.17502 18.4037 5.57686L19.859 4.20488ZM26.2427 13.8913C26.6215 14.2932 27.2544 14.3118 27.6563 13.9329C28.0581 13.5541 28.0767 12.9212 27.6979 12.5193L26.2427 13.8913ZM18.4037 5.57686L26.2427 13.8913L27.6979 12.5193L19.859 4.20488L18.4037 5.57686Z" fill="#B19046"/>
    <line x1="15.0242" y1="18" x2="32.0571" y2="18" stroke="#DF4D60" stroke-width="2" stroke-linecap="round"/>
</svg>