<svg width="51" height="38" viewBox="0 0 51 38" fill="none" xmlns="http://www.w3.org/2000/svg">
<path d="M46.2188 0C48.8584 0 51 2.12661 51 4.75C51 6.24427 50.2928 7.64948 49.0875 8.55L27.4125 24.7C26.277 25.5411 24.723 25.5411 23.5875 24.7L1.9125 8.55C0.708522 7.64948 0 6.24427 0 4.75C0 2.12661 2.14061 0 4.78125 0H46.2188ZM21.675 27.2333C23.9461 28.9255 27.0539 28.9255 29.325 27.2333L51 11.0833V31.6667C51 35.1599 48.1412 38 44.625 38H6.375C2.85381 38 0 35.1599 0 31.6667V11.0833L21.675 27.2333Z" fill="white"/>
</svg>
