<svg width="29" height="29" viewBox="0 0 41 41" fill="none" xmlns="http://www.w3.org/2000/svg"><path d="M34.8591 5.95781C31.0246 2.11406 25.9179 0 20.4908 0C9.28906 0 0.173884 9.11518 0.173884 20.317C0.173884 23.8953 1.10737 27.3913 2.88281 30.4754L0 41L10.7717 38.1721C13.7368 39.792 17.0772 40.6431 20.4817 40.6431H20.4908C31.6835 40.6431 41 31.5279 41 20.3261C41 14.8991 38.6937 9.80156 34.8591 5.95781ZM20.4908 37.2203C17.4525 37.2203 14.4781 36.4058 11.8882 34.8683L11.275 34.5022L4.88705 36.177L6.58929 29.9446L6.18661 29.304C4.49353 26.6134 3.6058 23.5109 3.6058 20.317C3.6058 11.0096 11.1835 3.43192 20.5 3.43192C25.0118 3.43192 29.2491 5.18906 32.4339 8.38304C35.6188 11.577 37.5772 15.8143 37.5681 20.3261C37.5681 29.6426 29.7982 37.2203 20.4908 37.2203ZM29.7525 24.5725C29.2491 24.3163 26.7507 23.09 26.2839 22.9252C25.8172 22.7513 25.4786 22.669 25.14 23.1815C24.8013 23.694 23.8313 24.8288 23.5292 25.1766C23.2364 25.5152 22.9344 25.5609 22.431 25.3047C19.4475 23.8129 17.4891 22.6415 15.5214 19.2645C14.9998 18.3676 16.0431 18.4317 17.0132 16.4915C17.1779 16.1529 17.0955 15.86 16.9674 15.6038C16.8393 15.3475 15.8234 12.8491 15.4025 11.8333C14.9906 10.8449 14.5696 10.9821 14.2585 10.9638C13.9656 10.9455 13.627 10.9455 13.2884 10.9455C12.9498 10.9455 12.4007 11.0737 11.9339 11.577C11.4672 12.0895 10.1585 13.3158 10.1585 15.8143C10.1585 18.3127 11.9797 20.7288 12.2268 21.0674C12.483 21.406 15.8051 26.531 20.9027 28.7366C24.1241 30.1277 25.3871 30.2467 26.9978 30.0087C27.977 29.8623 29.9996 28.7824 30.4205 27.5926C30.8415 26.4029 30.8415 25.3871 30.7134 25.1766C30.5944 24.9478 30.2558 24.8196 29.7525 24.5725Z" fill="white"/></svg>
